<svg width="64px" height="64px" viewBox="0 0 3.84 3.84" version="1" xmlns="http://www.w3.org/2000/svg" enable-background="new 0 0 48 48"><g fill="#FFA726"><path cx="10" cy="26" r="4" d="M1.12 2.08A0.32 0.32 0 0 1 0.8 2.4A0.32 0.32 0 0 1 0.48 2.08A0.32 0.32 0 0 1 1.12 2.08z"/><path cx="38" cy="26" r="4" d="M3.36 2.08A0.32 0.32 0 0 1 3.04 2.4A0.32 0.32 0 0 1 2.72 2.08A0.32 0.32 0 0 1 3.36 2.08z"/></g><path fill="#FFB74D" d="M3.12 1.52c0 -1.016 -2.4 -0.664 -2.4 0v0.8c0 0.664 0.536 1.2 1.2 1.2s1.2 -0.536 1.2 -1.2z"/><path fill="#FF5722" d="M1.92 0.24C1.168 0.24 0.56 0.848 0.56 1.6v0.272L0.72 2v-0.24l1.68 -0.784 0.72 0.784v0.24l0.16 -0.128V1.6c0 -0.64 -0.456 -1.36 -1.36 -1.36"/><g fill="#784719"><path cx="31" cy="26" r="2" d="M2.64 2.08A0.16 0.16 0 0 1 2.48 2.24A0.16 0.16 0 0 1 2.32 2.08A0.16 0.16 0 0 1 2.64 2.08z"/><path cx="17" cy="26" r="2" d="M1.52 2.08A0.16 0.16 0 0 1 1.36 2.24A0.16 0.16 0 0 1 1.2 2.08A0.16 0.16 0 0 1 1.52 2.08z"/></g><path fill="#757575" d="M3.44 1.92c-0.048 0 -0.08 0.032 -0.08 0.08v-0.56c0 -0.704 -0.576 -1.28 -1.28 -1.28h-0.56c-0.048 0 -0.08 0.032 -0.08 0.08s0.032 0.08 0.08 0.08h0.56c0.616 0 1.12 0.504 1.12 1.12v0.8c0 0.048 0.032 0.08 0.08 0.08s0.08 -0.032 0.08 -0.08v0.16c0 0.312 -0.248 0.56 -0.56 0.56H1.92c-0.048 0 -0.08 0.032 -0.08 0.08s0.032 0.08 0.08 0.08h0.88c0.4 0 0.72 -0.32 0.72 -0.72v-0.4c0 -0.048 -0.032 -0.08 -0.08 -0.08"/><g fill="#37474F"><path d="M3.44 1.76h-0.08c-0.088 0 -0.16 0.072 -0.16 0.16v0.32c0 0.088 0.072 0.16 0.16 0.16h0.08c0.088 0 0.16 -0.072 0.16 -0.16v-0.32c0 -0.088 -0.072 -0.16 -0.16 -0.16"/><path cx="24" cy="38" r="2" d="M2.08 3.04A0.16 0.16 0 0 1 1.92 3.2A0.16 0.16 0 0 1 1.76 3.04A0.16 0.16 0 0 1 2.08 3.04z"/></g></svg>